# xmcd
# Copyright (C) 1995-1998 Ti Kan
#
# Track frame offsets:
#       150
#       16419
#       34901
#       47251
#       59019
#       70756
#       84090
#       99186
#       112186
#       125613
#       140141
#       153039
#       173414
#       191544
#       208837
#       223212
#       238837
#       254456
#       268251
#
# Disc length: 3687 seconds
#
# Revision: 0
# Processed by: cddbd v1.5.1PL0 Copyright (c) Steve Scherf et al.
# Submitted via: CD-Transfer v1.0
#
DISCID=140e6513
DTITLE=Harlem Ramblers Zürich, The - Still Going Strong!
DYEAR=04
DGENRE=
TTITLE0=That's My Home
TTITLE1=New Orleans Shuffle
TTITLE2=Hello Dolly
TTITLE3=Petite Fleur
TTITLE4=When Your Hair Has Turned To Silver
TTITLE5=Creole Jazz
TTITLE6=I Like Me When I'm With You
TTITLE7=I've Found A New Baby
TTITLE8=Make Me A Pallet On The Floor
TTITLE9=It Don't Mean A Thing
TTITLE10=Change My Ways
TTITLE11=Milenberg Joys
TTITLE12=Keepin' Out Of Mischief Now
TTITLE13=When You're Smiling
TTITLE14=Coffee Grinder
TTITLE15=Tishomingo Blues
TTITLE16=Fair And Square
TTITLE17=Rosetta
TTITLE18=Happy Birthday
EXTD=
EXTT0=
EXTT1=
EXTT2=
EXTT3=
EXTT4=
EXTT5=
EXTT6=
EXTT7=
EXTT8=
EXTT9=
EXTT10=
EXTT11=
EXTT12=
EXTT13=
EXTT14=
EXTT15=
EXTT16=
EXTT17=
EXTT18=
PLAYORDER=
